<svg xmlns="http://www.w3.org/2000/svg" viewBox="0 0 926.9 550.3"><defs><style>.cls-12{mix-blend-mode:multiply}.cls-3{fill:#f7c9b6}.cls-7{fill:#fff}.cls-8{fill:#f47833}.cls-12{opacity:.43}.cls-13{fill:#9c5043}</style></defs><g style="isolation:isolate"><g id="Layer_2" data-name="Layer 2"><g id="Layer_1-2" data-name="Layer 1"><ellipse cx="525.2" cy="388.7" class="cls-3" opacity=".6" rx="401.7" ry="161.6" style="mix-blend-mode:multiply"/><path fill="#f9f8f7" d="M552.4 56a80.6 80.6 0 0 0-59.2-30.1c-4.1-15-17.3-28.6-33.7-19.2-7.5 4.3-9.6 13.6-17.7 15.8-13 3.6-26 6-39 10.3-5.6-7.5-12.8-14.5-23-13.2-12.7 1.6-11.3 11.7-14.2 21-2.5 7.7-11.2 12.3-16.5 18a79.4 79.4 0 0 0-11.7 16.7 82.5 82.5 0 0 0-8.3 27.3 6.7 6.7 0 0 0-1.9 2l-3 4.7c-2.9 4.3 2.4 11 7.3 9 19.2-8 27.2 9 28.1 25.1.2 3.4 3.9 6.8 7.4 5.4 15.1-6 30.3-12.3 46.2-15.7 18.8-4 37.8-2.6 56.8-2.6 15 0 30.7.1 45.5-2 12.3-1.8 16.3-15.8 23.6-24.4 5.4-6.4 11.4-11.2 17.7-16.6 2.5-2.3 5.3-4.2 6.2-7.7 2.1-8-6-18-10.6-23.8Z"/><path fill="#ffb955" d="M875.8 322.8c-3.1-10.7-1.9-27.2-2.6-34a373.6 373.6 0 0 0-6.2-39c-2.6-12.6-5.4-26.3-10-39 3-6.5 7.8-12.7 10.8-19a127.3 127.3 0 0 0 7.2-18.2c3.2-11 1.9-21.3-5.8-30-17.3-19.6-51.9-24-76.3-21.5a5 5 0 0 0-1.6.5A177.4 177.4 0 0 0 703 78.7c-26.3-4.8-66.3-7.7-88.9 11a48.2 48.2 0 0 0-45.6-10.2c-21 5.6-35.9 22.7-46.4 41-31.6-2.3-64.4.8-95.6 4.6-21.2 2.5-44 4.6-61.2 17.5a4.1 4.1 0 0 0-2-2.2 22.8 22.8 0 0 0-5.2-19.1c-9.2-11-25.2-11.3-37.7-6.8-24.7 9-60.6 35.4-51.9 65.6a2.9 2.9 0 0 0 1.3 1.7c-3.2 13-22.3 29.3-27.6 37.6-7.8 12.4-11 26.4-13 40.7a286.3 286.3 0 0 0 2.4 93.3c-7.7 5.3-24.7 2.1-30.4-.2a37.9 37.9 0 0 1-21.2-22c-5.3-14.4.4-30.2-4.8-44.5a30.4 30.4 0 0 0-38-18 2.1 2.1 0 0 0-2-.2C95 284.2 91.8 336 116 366.9a99.3 99.3 0 0 0 57.8 35.7c21.4 4.5 50.4 4.2 70.5-7.2 26.6 62 81.4 103 146.2 120.2 35.8 9.5 68.8 4.6 104.8-1.5 12.8-2.1 25.6-4.5 38.3-7.5a3.5 3.5 0 0 0 1.7.2c12.3-2.2 24.2-4.8 36-8.1a4.6 4.6 0 0 0 2.7.3 168.3 168.3 0 0 0 39.8-12.8c9.5-4.5 14.4-5.8 23.6-.9a125.2 125.2 0 0 0 17.2 7.8A144 144 0 0 0 733 497a191.7 191.7 0 0 0 73.7-34.8c10.1-7.6 33.2-23.7 41-34.8 27.4-3.5 50-14.7 64.3-36.8 19.7-30.2-13-52.7-36.2-67.7Z"/><path fill="#c8b1af" d="M516.9 31.6a53 53 0 0 1-16.7-2c-5.7-2-9.5-6-13-10.8C481.4 11 472.5.5 461.3 5c-7.5 3-9.8 11-13.2 17.6-1.6 3.1-3.6 6.4-7.3 7-3.2.5-6.5-.1-9.7.1a39.9 39.9 0 0 0-9.3 2 3.5 3.5 0 0 0-1.5 1l-.5-.4a1.5 1.5 0 0 0-2 0 3.7 3.7 0 0 0-5.7-.6c-4 3.8-9.9-.3-13.5-2.8-4.6-3.2-9.3-6.5-14.8-7.7-9.1-2-19.5 2.2-20.6 12.3-.6 5.2 1.9 11.3-1.4 15.8-3 4.2-8 7-11.7 10.8A71.7 71.7 0 0 0 334 86.7c-.7 2 1 3.9 3 4A90.6 90.6 0 0 0 394.2 78a61.4 61.4 0 0 0 26.4-38c10.7 13.6 29.7 20.6 46.3 21a67.7 67.7 0 0 0 52.3-23.2c2-2.3 1-6.1-2.3-6.1Z"/><path d="M776 220.6c-5.7 2.5-7.7 10.5-4.5 15.6 2.3 3.5 6 3.6 9.2 2 3.9-.9 7.4-3.7 8.3-7.4 1.6-7.3-6.7-13-13-10.2Zm28.5 113.6a15.1 15.1 0 0 0-3.9 2 6.6 6.6 0 0 0-3.1 1 7.2 7.2 0 0 0-3.3 5.6c-.6 5.3 5 9 9.9 7.2s6.4-6.8 6.3-11.5c0-2.9-3.1-5.3-5.9-4.3ZM853.6 158c-5-6.3-13.2-5.7-20.3-4-3.2-2.2-7.3 2.8-4.5 6.2l1.1 1.4a122.5 122.5 0 0 0 14 19.7c1.3 1.6 4.6 1.5 5.8-.2 4.9-6.5 10-15.5 4-23.1ZM893 368.6c-3-5.5-10-6.6-15.3-3.8a12.7 12.7 0 0 0-2.9 2.2 3.3 3.3 0 0 0-3.4 2.3l-6.8 20.7c-.6 2 1.4 4.7 3.7 4.4a37.6 37.6 0 0 0 20.2-8.7c4.6-4.2 7.8-11 4.5-17ZM518.6 196.8c-29.4-9-63-5.2-93-1-25.5 3.5-49.5 10.8-68.5 28.4-48.8 24.2-37.3 96.2-12.6 134 28.4 43.7 90.8 52.8 138.2 42.8 48-10.2 91.2-47.4 99.4-97.3 7.4-45.6-18.5-93.3-63.5-107Z" class="cls-7"/><path d="M871.7 282.7c-.4-6.5-.9-14.4-3.3-20.6a7.7 7.7 0 0 0-2.2-3.3 3.1 3.1 0 0 0-3.2-3c-11.1.5-23.7 3.8-30.4 13.5-6.3 9.1-2.3 19.2 6.5 24.7 7.4 4.6 22.6 8.2 30 1.8 3.9-3.2 3-8.6 2.6-13ZM860.3 233l-.4-.1c2-2.8-.9-8-4.7-6.5a49.8 49.8 0 0 0-12.4 6.4c-3.6 2.7-8 5.9-8 10.8 0 9.6 14.3 11 21 9 8.3-2.4 13.1-14.2 4.5-19.5Zm10 84.6c2.6-1.9 2.3-7.1-1.5-7.9a16.3 16.3 0 0 0-12.9 3.3 10 10 0 0 0-6.7 7.3c-.9 4.6 2 9.1 6 11.3 4.6 2.4 9.9 1.2 14.5-.3a5.5 5.5 0 0 0 3.7-5.2 12.1 12.1 0 0 0-3-8.5ZM170.4 312c-14.9 15.8-42 30.2-63.6 18.4-4.8-2.6-10.4 4.7-5.8 8.1a48.8 48.8 0 0 0 44.3 8c14.4-3.8 32.6-12.9 34.6-29.4.6-5.1-5.4-9.4-9.5-5Zm10.9 31.2a70.2 70.2 0 0 1-12.8 21.2c-4.7 5.2-13.7 16-21.2 16.4-6.6.4-8.4 11.3-1.2 12.1 23.8 2.6 40.5-26.2 45-46 1.4-5.7-7.5-9.5-9.8-3.7Zm35.5 11.5c-2.5-5.7-11.5-3.4-9.6 2.8a39 39 0 0 1-7.7 36.6c-5.4 6.6 4 15.7 9.8 9.2 11.9-13.6 14.4-32 7.5-48.6Z" class="cls-8"/><path d="M739 212.4c-3-11-12.2-25.2-24.2-25.4a20 20 0 0 0-16 1c-12.8 7-16.8 25.4-12.8 38.2a31.4 31.4 0 0 0 35.6 21 24.5 24.5 0 0 0 16.7-12c3.8-7 2.7-15.5.6-22.8Zm13.2 139.1c-15 4.3-18.7 22.4-15 35.7l.6 2a26.5 26.5 0 0 0 28.2 21.6c36-2.5 19.9-68.9-13.8-59.3Z" style="fill:#ff976e"/><path d="M383.9 31a6.6 6.6 0 0 0-9.2 2.9 12.8 12.8 0 0 0-1.4 6.5c-1.2 1.9.3 5 2.8 4a2.1 2.1 0 0 0 1.8-.7c3.4-1.3 7.3-2.7 9.6-5.4s-1-5.8-3.6-7.3ZM469 15.7c-4.5-.2-9 4.2-8.2 8.7a3 3 0 0 0 2.9 2.6 1.7 1.7 0 0 0 1.5.3 15.8 15.8 0 0 1 1.6-.3l2.6-.2a10.5 10.5 0 0 1 1.1.1c1.3.1 2.5.7 3.7.7a3.2 3.2 0 0 0 3-3.5 9 9 0 0 0-8.3-8.4ZM396.3 94c-6.7-9.3-21.7-2-23.9 7.3-1.1 4.8 1 9.6 6.2 10.7s10.8-1.4 14.7-4.4a11.7 11.7 0 0 0 1.7-1.7c3.1-3 4.4-7.5 1.3-11.9Zm110.4-24.8a9 9 0 0 0-6.7-6.9 22.4 22.4 0 0 0-14.2 1c-4.5 2.1-8.2 7.5-5.3 12.3 4.4 7.6 18.5 9 24.4 2.6a8.9 8.9 0 0 0 1.8-9Z" style="fill:#fdc0b1"/><path d="M94.8 274.2c-.6-15.3-20.7-29.5-34.2-18.5a21 21 0 0 0-2.2 2.6 2.7 2.7 0 0 0 0-1.5c-1-2.8-5.6-5.8-8.1-7a19.7 19.7 0 0 0-20.4 2.3c-9.9 7.9-14.7 23-8.9 33.6a22.2 22.2 0 0 0 .8 4.3C8.5 297 1 313.8 14 328.2c21 23.3 63 .4 62.6-27.8 10.8-2.5 18.6-13.1 18.2-26.2Z" class="cls-7"/><path fill="#ff83aa" d="M843.3 47c-.7-8-2.7-15.8-9.2-21.6-7.3-6.6-17.6-7.1-25.2-.8C801 31.2 798 41 798.2 51c-1.2 13.7 6.5 30.2 18 34.5 10.5 3.8 23.6-.8 33.9-3.5 10.4-2.7 20.9-8.4 22-20.4C874 43 856.8 41.9 843.3 47Z"/><g class="cls-12"><path d="M617 134.2a3.2 3.2 0 0 0-4.3-1c-3.5 2-3.1 4.2-6 6.4a13.3 13.3 0 0 1-9.7 2.3 60.6 60.6 0 0 0-13.8-16 25.5 25.5 0 0 0-13.7-6 19.6 19.6 0 0 0-23 9.5c-3 5.3 5 11.4 8.8 6.3 1.7-2.3 3.4-3.6 5-4a4.5 4.5 0 0 0 2.5-.2c6.6 1.3 11.6 15.4 15.8 19.2 3 2.6 7 4.4 11.3 5.5a3.5 3.5 0 0 0 .5 4.6c4.7 4.1 11.3 3.7 16.4.3 3.7-2.5 6.2-6.7 8-11 4-4.3 5.7-9.9 2.2-16Z" class="cls-3"/></g><g class="cls-12"><path d="M598 387.1c-4.2-4.8-12.5 2-8.8 7.2a50.5 50.5 0 0 1 6.4 44.2c-2.6 9.9 11.8 12.6 15.1 3.5 6.8-19.1.3-40-12.6-54.9Z" class="cls-3"/></g><path d="M307.6 139.6a21.6 21.6 0 0 0-11.9 10.1 12.5 12.5 0 0 0 7.3 17.6c6.6 2.3 14.2-.7 20-4.1 6-3.5 11-9.8 10.7-17-.5-13.9-16-12.3-26.1-6.6Zm31.4-15.5a5.8 5.8 0 0 0-6.5-2.6 7.2 7.2 0 0 0-4.4 4 4.2 4.2 0 0 0 .4 4.6 4 4 0 0 0 3.6 1.5 4.8 4.8 0 0 0 5 .1 5.7 5.7 0 0 0 1.9-7.6Zm8.5 5.3a10 10 0 0 0-3.7 1.8c-4 1.5-7.2 5.6-5 9.7 2.9 5.3 11.6 3.9 15 0 4.3-4.9.3-13-6.3-11.5Zm-3.5 20.4a1.6 1.6 0 0 0-.8.2 2.4 2.4 0 0 0-1.8.3 2.4 2.4 0 0 0-.4 3.7 3.5 3.5 0 0 0 4.8 0 2.5 2.5 0 0 0-1.8-4.2ZM390.1 435a14.7 14.7 0 0 0-13.6-5.6 15.8 15.8 0 0 0-3.1.7 24 24 0 0 0-5 .9c-8.9 2.6-19.7 12.4-17.7 22.3v.8c.7 6.7 6.4 11 12.9 11 10.8.4 27.5-4.5 30.5-16.4a13 13 0 0 0-4-13.6Zm9-15.7a9 9 0 0 0-7.2-6.2c-3.7-.5-7.6.9-9.4 4.3a7 7 0 0 0-.5 5.4 10 10 0 0 0 2.5 5.7 8.3 8.3 0 0 0 10.6 1.2 9.5 9.5 0 0 0 4-10.4Zm12.9 13.5a6.7 6.7 0 0 0-3.5-5.8 7 7 0 0 0-6.7.1 4.5 4.5 0 0 0-2.2 3.6 6 6 0 0 0 1.6 7 6 6 0 0 0 3 1.4l.1.1a4.7 4.7 0 0 0 6.3-1.9 9.5 9.5 0 0 0 .6-1.6 5.9 5.9 0 0 0 .8-2.9Zm-1 15.1a5 5 0 0 0-4.1-2.3 6 6 0 0 0-2.3.3 5.7 5.7 0 0 0-1.2-.1 6.4 6.4 0 0 0-4.3 1.8 6 6 0 0 0 0 8.6 7 7 0 0 0 7.1 1.6 8.5 8.5 0 0 0 5-5.2 5 5 0 0 0-.1-4.8Z" class="cls-8"/><g class="cls-12"><path d="M907.2 377.7c-5.8 8.6-12 17-21 22.5-8.4 5-23 8.3-31.5 1.5a4.8 4.8 0 0 0-5.5-.4 2.8 2.8 0 0 0-2.7 1.5 144.5 144.5 0 0 1-29.6 36c-18.8 13.2-43.8 21-63.3 25.6-34.8 8.1-71.9 7.3-104.9-7.3a5.7 5.7 0 0 0-5.6.4 59.5 59.5 0 0 0-1.7-57.5c-2.6-4.5-10.1-1.3-8.4 3.7 15 42.7-34 73-68.3 81-21.7 5.2-44.3 6.8-66.4 9.4-22.4 2.6-45 6.1-67.6 7a176.8 176.8 0 0 1-105.4-29.4 6 6 0 0 0-1.5-3c-29.4-32.2-53.8-65.4-67-106.3 12.5 12.5 37.5 2.4 35-14.7 1.3-2 1.5-4.7-.4-7.5a15.5 15.5 0 0 0-4.3-4.2 18.6 18.6 0 0 0-7.6-7c-12.9-6.2-24.8 3.6-27.5 15.2l-.5-2.2c-10.5-49.3-5.2-107.3 25.7-148.7 3.7-5-2.8-11.5-7.1-6.7-37.7 41.9-46.1 100-36.2 154a246.2 246.2 0 0 0 7.7 30.8c9.4 68.8 66.7 122.5 132.2 140 39.9 10.6 79.7 4.4 120-.3 37.2-4.4 78.2-5.6 111.7-24.3a81.8 81.8 0 0 0 14.9-10.6c1.4 2 4 3 6.5 1a62.1 62.1 0 0 0 13.5-15 5 5 0 0 0 1 3.2 6 6 0 0 0-.4.6 15.5 15.5 0 0 1-7 9c-4.4 3-4.6 12.2 2.1 12.8 10.9 1.1 20.8 5.6 31.4 7.7a96 96 0 0 0 33-.1 229 229 0 0 0 18.7-3.7c40-1.5 78.1-15.6 105-48.8l3.3-3a58.8 58.8 0 0 0 17.2-21.5q2.6-4.1 4.8-8.6l1.5 1.2-5.1 10.5c-1.2 2.5.5 6 3.5 5.7a8.9 8.9 0 0 0 5.6-2.7c1.2-1 2.1-3.2 3.7-3.6 1.2-.3 2.6.1 3.8-.1a6.9 6.9 0 0 0 3.7-1.9 6.2 6.2 0 0 0 1.6-2.8c17.9-1.3 34.6-21.8 43-36.5 1.4-2.3-2.1-4-3.6-1.9Z" class="cls-3"/></g><g class="cls-12"><path d="M606 216.6c-4.5-6.8-14.6-.6-10.7 6.5 22.6 41.3 24 83.8 22.8 129.6-.1 4.6 7 6.4 8.9 2 18.7-44.7 4.8-99-21-138.1Z" class="cls-3"/></g><g class="cls-12"><path d="M241.4 385.8a12.7 12.7 0 0 0-2.4-3.4v-.9a.7.7 0 0 0 0-.1 18.7 18.7 0 0 0-1.2-8.7c2.5-.9 2.1-5.2-1-5.2a2.5 2.5 0 0 0-1.2.3 32.8 32.8 0 0 0-3.2-5.9c0-2.9-2.4-5.6-6.3-4.9-16 2.8-33.8 2.6-43.8-10.7l-.2-.3-1.4-2.1c-7.7-13-5.6-29-2.7-44 1-4.9-6.5-8.2-8.5-3.2-9.3 22.4-12.4 47.7 6 66.4a56.9 56.9 0 0 0 40 15.2 12.2 12.2 0 0 1 4.7 3.5c-12.9 13.7-37.7 13-55.5 9-21.7-5-46.5-17.6-55.2-39.4-1.2-3-6-1.8-5 1.5 8.7 29.5 38.2 48.1 67.5 52.5 11.1 1.7 34.6 1.3 49.9-5.8a3.8 3.8 0 0 0 3 1l1.2-.1.8-.2.8-.2a11 11 0 0 0 1-.5 13.7 13.7 0 0 0 2-.9 9.7 9.7 0 0 0 10.9-6.6 9.5 9.5 0 0 0-.2-6.3Z" class="cls-3"/></g><g class="cls-12"><path d="M869.3 148a2.3 2.3 0 0 0-4.4 0c-2 8.2-2.3 36.5-15.4 36.6-4.7 0-5.7 7.8-.8 8.5a19.3 19.3 0 0 0 4.5.1 3.7 3.7 0 0 0 .3 1.1 23.9 23.9 0 0 1 2.1 11.4c-.2 4.7 7.2 4.4 7.4-.2a30.4 30.4 0 0 0-1.7-11.3 46.1 46.1 0 0 0 3.4-6.9 22 22 0 0 0 4-6.6c3.6-9.1 3.9-23.6.6-32.8Z" class="cls-3"/></g><g class="cls-12"><path d="M550.5 61.7a4.4 4.4 0 0 0-6.3 2.8c-10.3 32.9-50.4 43.8-80.2 48.9-28.7 4.8-59.7 9-88.3 2a41.6 41.6 0 0 1-5.9-3 75.1 75.1 0 0 1-23.3-24.5 30.6 30.6 0 0 1 1-15c1.5-4.3-5.5-6.9-7.4-2.8a43.5 43.5 0 0 0-4.1 14 4 4 0 0 0-3.4 3.5 402 402 0 0 1-2.9 15.4 5.2 5.2 0 0 0 4 6.3 12.7 12.7 0 0 0 4 3 6.8 6.8 0 0 0 5.3 0 4.6 4.6 0 0 0 5-1.4 11.4 11.4 0 0 0 3 1.1 65.3 65.3 0 0 0 12.4 12 10.8 10.8 0 0 0-2.2 6c-.2 1.8 1.3 3.5 2.8 4.5 9.5 6 31.4-1.8 41.3-4.2a4 4 0 0 0 1.3-.6c23.4 1 47.4-3 70.3-6.6a143 143 0 0 0 18.7-4.1 4 4 0 0 0 1.8 1.6 38.5 38.5 0 0 0 28 2.6c6.2-2 5-9.3.4-11.3a107.8 107.8 0 0 0 24.7-19.3c8.5-9 13.8-24.2 0-31Z" class="cls-3"/></g><path d="M599.7 489a639.8 639.8 0 0 1-116 22.8c-39.6 3.7-80.6 2.8-119-8.7-38-11.4-71.8-34-94.5-66.9a211.8 211.8 0 0 1-26.1-53.4c-7.2-21.6-12.3-44-13.7-66.7a199 199 0 0 1 7-69.9 139 139 0 0 1 27.4-51.2 71.7 71.7 0 0 1 9.5-9c4-3.1-1.6-8.7-5.6-5.6-15.6 12.2-26 30.8-33.6 48.8a184.8 184.8 0 0 0-13 65.7c-.7 25 2.8 49.6 9.3 73.6a249 249 0 0 0 22.8 57.2 179.9 179.9 0 0 0 91.2 79c38 15.1 80.1 18.5 120.7 16.3 41.3-2.2 82.2-10 122-20.7l13.7-3.8c4.9-1.4 2.8-9-2.1-7.7Zm248.5-83.6C839 436 813.4 458 785.8 472a200.6 200.6 0 0 1-101.3 21 144 144 0 0 1-53.5-12.8c-4.6-2.2-8.7 4.7-4 6.9 32.4 15.3 70 17 104.8 10.9s69.7-20.7 95.4-45.3c13.1-12.5 23.5-27.9 28.6-45.3 1.5-5-6.1-7-7.6-2.1ZM844.3 193A263 263 0 0 1 869 321.3a223 223 0 0 1-5 36.3c-1.1 5 6.5 7.1 7.6 2.1a267 267 0 0 0-6.7-135.2 247.4 247.4 0 0 0-14-35.5c-2.2-4.6-9-.6-6.8 4ZM612.9 93.7c17.5-13.2 40.8-17.2 62.3-16.9 29.2.5 57.9 9.7 82.5 25.2a181.8 181.8 0 0 1 43.7 39.3c3.2 4 8.8-1.7 5.6-5.7a182 182 0 0 0-83.7-58.5c-26-8.5-54.6-11-81.4-4.8a87.2 87.2 0 0 0-33 14.5c-4 3 0 10 4 6.9Zm-246.6 53c18.2-9.6 39-13.9 59.3-16.6a411.3 411.3 0 0 1 66-3.1c10.7.3 21.3 1 31.8 2 5.1.7 5-7.3 0-7.8a410.1 410.1 0 0 0-61.5-2c-22.8.8-45.8 3.2-67.9 8.9a146.2 146.2 0 0 0-31.7 11.7c-4.5 2.4-.5 9.3 4 6.9Zm404.5 111.9a116 116 0 0 0-17 14.6 111.7 111.7 0 0 0-7.6 8.7c-2.4 3-4.9 6.2-5.1 10.2-.4 6.5 5.6 9.8 10.9 11.6 4.7 1.8 9.6 3 14.5 4.2 4.7 1.2 9.5 2.2 14 3.7 5 1.6 7-6 2.2-7.6-9.8-3.2-20.1-4.6-29.8-8.3l-.5-.2-1-.5c-1.2-.7-2.6-1.4-2.3-3 .3-1.7 2-3.4 3-4.8l4-4.9a105.6 105.6 0 0 1 18.8-16.8 4 4 0 0 0 1.4-5.5c-1-1.7-3.7-2.6-5.4-1.4Zm18.3-41.6a19.9 19.9 0 0 0-2.3-3l-.4-.7c-6-9.2-25.3-6-33.9-3.1-10.4 3.5-18.9 13.2-13.1 24.4 7 13.7 25.1 12.4 37.4 7.6 10.1-4 19.4-14.1 12.3-25.2Zm-1.2 12a10.2 10.2 0 0 1-.3 1s0 .2-.2.3-.1.5-.2.8a4.5 4.5 0 0 1-.4.8 8.8 8.8 0 0 1-1 1.4 13.4 13.4 0 0 1-.8 1.2 3.9 3.9 0 0 1-1.7 1.2l-1 .2h-.6a4 4 0 0 1-1.2.8l-1 .2a4 4 0 0 1-2.9-1 3 3 0 0 1-1-1.3 3.8 3.8 0 0 1-.3-2.3v-.1a4.4 4.4 0 0 1 1-2.9l.3-.3a3.8 3.8 0 0 1 .5-.8 11.3 11.3 0 0 1 2.7-2h.1a8.4 8.4 0 0 1 1.8-1.4h.2a3.5 3.5 0 0 1 .3-.2 3 3 0 0 1 .4-.2l.6-.1.5-.1a7.3 7.3 0 0 1 1 0 3.3 3.3 0 0 1 1 .4l.9.5.7.8.5 1 .2 1v1.2Zm26.6 101.1a19.3 19.3 0 0 0-2.3-3l-.4-.7c-6-9.2-25.3-6-33.9-3.1-10.4 3.5-19 13.2-13.1 24.4 7 13.7 25.1 12.4 37.4 7.6 10.1-4 19.3-14.1 12.3-25.2Zm-5.3 15.7a8 8 0 0 1-1.7 1.4 4 4 0 0 1-2.6 2.5 4 4 0 0 1-5.6.5 4 4 0 0 1-1.4-2.8 6.8 6.8 0 0 1 .1-1.5 3.9 3.9 0 0 1-.2-2.2 4.4 4.4 0 0 1 1-2 15 15 0 0 1 5.5-5.4 4 4 0 0 1 2-.6 4 4 0 0 1 2 .3 4 4 0 0 1 2.3 3.4 7.7 7.7 0 0 1-1.4 6.4Z" class="cls-13"/><path d="M288.6 142.3a102.2 102.2 0 0 1 38.6-22.2c7.4-2.4 15.9-4 23.4-.9 5.8 2.4 10.2 7.5 10.3 14 .2 13.8-12.8 25.8-23.2 33a107.8 107.8 0 0 1-38.8 16.4c-7.6 1.6-17.2 2.6-23.6-2.7-4.6-3.8-7.3-10.5-3.7-15.8 2.9-4.3-4-8.2-6.8-4-4.1 6-3.4 13.9.3 20a25.2 25.2 0 0 0 19.8 11.5c9 .9 18.2-1.5 26.8-4.2a118.1 118.1 0 0 0 23.7-10.3c14-8 29.3-21.1 32.7-37.7 1.7-8-.1-16.4-6.3-22.2s-15-8-23.4-7.4a83 83 0 0 0-30.2 9.5 112 112 0 0 0-25.2 17.4c-3.8 3.4 1.8 9 5.6 5.6Zm501.7-14.8c20.8-.8 42.7 2 62 9.8 7.2 3 15.2 7.5 18 15.2 3.5 9.2-1 20.5-4.5 29-4.2 10.3-9.9 19.9-13.5 30.4-1.6 4.8 6 7 7.7 2.1 3.5-10.1 9-19.4 13-29.3s8.3-21.6 5.6-32.3c-5-19.8-30.7-26-47.8-29.5a171.2 171.2 0 0 0-40.6-3.4c-5 .2-5 8.1 0 8Zm82.8 199.9c15.6 9.6 37 18.8 40 39.1 1.8 11.4-5.3 20.6-12.9 28.2a87.6 87.6 0 0 1-27.1 18c-11.5 5.2-23.4 9.2-34.7 14.9-4.5 2.3-.5 9.1 4 6.8 11.1-5.6 22.9-9.5 34.2-14.6a94.6 94.6 0 0 0 29.6-19.9c8-8.2 15.4-18.2 15.1-30.2a42 42 0 0 0-14.6-29.6c-8.9-7.8-19.5-13.4-29.6-19.5-4.3-2.7-8.3 4.2-4 6.8Z" class="cls-13"/><path d="m275 154 3.4-3.5a3 3 0 0 0 .8-1.2 3.6 3.6 0 0 0 0-3.1 3 3 0 0 0-.8-1.3l-.8-.6a3.9 3.9 0 0 0-2-.5l-1 .1a4 4 0 0 0-1.8 1l-3.4 3.5a3 3 0 0 0-.9 1.2 3.1 3.1 0 0 0-.3 1.6 4.4 4.4 0 0 0 1.2 2.8l.8.6a3.9 3.9 0 0 0 2 .5l1-.1a4 4 0 0 0 1.8-1Zm72.4 277.9c12.5-11 29-21.4 46.3-19.6 12.9 1.3 28.1 12.5 28.4 26.4.4 18.5-18.5 29-33 35.6-15.3 6.9-33.9 12-49 2.2-6.7-4.3-12.4-12.5-10.6-20.8 1.8-7.8 8.6-14 13.6-19.9 3.2-3.9-2.4-9.5-5.7-5.6-5.5 6.6-12 13-14.9 21.3-3 8.8 0 18.2 5.8 25.2 13.5 16 36.8 15.1 54.7 8.6 18.5-6.7 41-17.7 46-38.6 4.6-18.4-9.5-34.5-26-40.4-22-7.8-45.3 6-61.2 20-3.8 3.4 1.8 9 5.6 5.6ZM242 393c-28.7 9-61 11.2-89.2-1.3-23-10.3-42.4-29.9-47.7-55.2-5-24.4 4-54.6 28.5-65.1 12-5.2 26.3-2.6 34 8.4 8.4 11.8 4.8 27.6 5.9 41a37.9 37.9 0 0 0 20 32.4 50.6 50.6 0 0 0 37.7 3c4.9-1.5 2.8-9.1-2.1-7.6a42 42 0 0 1-33.8-3.4 27.5 27.5 0 0 1-11.1-12.4c-3.2-7-3.1-15-3-22.6 0-14.4-.3-29.5-11.5-40a35.6 35.6 0 0 0-38.2-6.5c-26.3 10.7-38.3 41-35.1 67.9a85.1 85.1 0 0 0 45.1 63.3c31.5 17.3 69.2 16.2 102.7 5.8 4.8-1.6 2.8-9.2-2.1-7.7Zm285.3-268.7c4.3-11.7 13.6-21.8 23.4-29.3s22.2-14 34.9-13.6c14.7.4 23.8 12.3 27.5 25.5a88 88 0 0 1 2.8 30.1c-.7 8.8-4.1 17.9-12.6 21.8-3.6 1.7-8 2.2-11.6.4-4.2-2.1-6.4-6.7-8.4-10.7a55.2 55.2 0 0 0-19.9-24.4c-4.3-2.8-8.3 4-4 6.8a39.6 39.6 0 0 1 12 11.6c2.7 4.3 4.4 9 7 13.5 4.7 8.7 13 13.7 23 11.8 23.6-4.7 24-33.3 21.5-52-2.3-17.2-10.4-36-28.6-41-14.3-4-29.7 1.7-41.8 9.4-14 9-27 22.1-32.8 38-1.8 4.9 5.9 7 7.6 2.2ZM606 495.2a76.8 76.8 0 0 0 37.4-27.8 66.6 66.6 0 0 0 11.8-39 62.6 62.6 0 0 0-12.4-36.6c-10.1-13.3-29.7-25.6-46-15a21.3 21.3 0 0 0-8 27.2c2.2 5.4 5.8 10.4 7.3 16.2 1.7 6.4.8 13-1 19.3-1.4 5 6.3 7 7.7 2.1a42.2 42.2 0 0 0-1-29c-3.2-7.3-10.4-15.8-5.8-24 4.5-7.8 14.3-9.1 22.2-6.4a40.4 40.4 0 0 1 17.3 13 57.2 57.2 0 0 1 3.4 64.4 67 67 0 0 1-35.1 27.8c-4.8 1.8-2.7 9.5 2 7.7ZM261 360.4a134.3 134.3 0 0 1 10.5-9.8l2.7-2.2.6-.4c-.3.1.3-.3.3-.3l1.5-1.1 6-4.2a4 4 0 1 0-4-6.9 137.7 137.7 0 0 0-23.3 19.3 4 4 0 0 0 5.6 5.6Z" class="cls-13"/><path d="m261.3 343.6 10.6 18.6a4 4 0 1 0 6.9-4l-10.6-18.6a4 4 0 0 0-6.9 4ZM26 285.6c-5-10-3.4-24.3 6.2-31 8.3-5.7 21.6-4 27 5a4 4 0 0 0 6.9 0c2.9-5 9-6 14.2-4.7 6.4 1.8 10 7.5 11.3 13.8a30 30 0 0 1-3.7 20.7c-3.4 5.5-11.5 10.9-17.7 6-4-3-9.5 2.1-5.6 5.7 9.4 8.5-1.7 21.1-9.1 26.3a34.2 34.2 0 0 1-31 5.7c-9-3.2-16.8-11.7-16.7-21.6.2-9 6.6-17.5 15.7-19 5-.8 3-8.5-2.1-7.7a26.6 26.6 0 0 0-20.2 18.6A28.4 28.4 0 0 0 8 331.3c16.2 17.7 43.5 12.6 59-3.2 8.3-8.6 13.6-23.3 3.3-32.7l-5.6 5.6c8.5 6.7 20.2 4.4 27.1-3.6s9.5-19.5 7.7-29.8C98 258 91.6 249.6 82 247c-8.6-2.1-18.1.6-22.8 8.4h6.9c-7.6-12.5-25.9-15.8-38-7.7-13.4 9.1-16 27.9-9 41.7 2.3 4.6 9.2.6 6.9-4Z" class="cls-13"/><path d="M230.6 46.5a22 22 0 0 0-10 4.5l-.1.2-1-.3c-1.2-5.9-1.5-10.9-8.2-13.8-7.6-3.3-14.1 1.1-16.3 7.6a15.6 15.6 0 0 0-1.6 2c-12-5-29-.7-34.5 14.4a27 27 0 0 0 14 33.8c13 6.2 26.2 1.1 34.7-9a17.3 17.3 0 0 0 6.5 4.4c30.3 11.9 45.6-48.1 16.5-43.8Z" class="cls-7"/><path d="M199 47.8c.4-5.2 6-9.6 11.1-8.5 5 1 8.2 6.7 7 11.6-.5 2.6 2 6 5 4.8 5.2-2.1 14.5-6.1 18.9-.4 3.8 4.9.3 12.8-2.3 17.4-3.3 5.9-8 12.7-14.6 14.9-4.5 1.5-12.2-.4-12.6-6.1-.3-4.3-6.7-5.6-7.8-1-2 7.6-8.5 12.8-16.1 14.4-9 1.9-16.7-2.8-21-10.6-4.4-8.3-5-19.8-.7-28.3 4.1-8.3 14.5-13.7 22.8-7.7 4.2 3 8.1-3.8 4-6.8-8-5.8-19.1-4.3-26.6 1.6-8.1 6.5-11.3 17.6-10.9 27.7s4.2 20.3 12.2 26.7a26.6 26.6 0 0 0 24.7 4.4 28 28 0 0 0 19.3-19.4l-7.8-1c.6 9.4 9.7 15.3 18.7 14.6 10.4-.9 17.9-10.1 22.8-18.5 4.4-7.6 8.1-18.5 2.7-26.4-6.5-9.5-18.9-6.8-27.8-3l4.8 4.8c2.2-9.3-3.7-19.7-13.4-21.5C201.2 29.6 191.9 38 191 48c-.5 5 7.5 5 8 0Zm614 34.3c-13.4-12.4-16.2-35.4-3.5-49.4 6.2-6.8 18.2-11 25.4-3 5.7 6.5 4 16.9.3 23.9l7.2 3c1.5-7.4 8.9-12.6 16.3-9.8 8.1 3.2 9.7 12.4 6 19.6-4.2 8-13 11.8-21.2 14a78.2 78.2 0 0 1-30.5 2c-5-.6-5 7.4 0 8a84.3 84.3 0 0 0 31.4-2c9-2.2 18.1-6.1 24-13.4 5.4-6.6 8-15.9 4.8-24a20.6 20.6 0 0 0-19-12.8c-9.3 0-17.6 7.3-19.4 16.4-.9 4.2 5 7.2 7.2 3 4.2-7.7 6-17.4 3-25.8a21.7 21.7 0 0 0-22-14.3c-20.6 1.4-31.5 24.3-29.3 42.7a44.4 44.4 0 0 0 13.6 27.5c3.7 3.5 9.4-2.1 5.6-5.6Zm-482.5 32.6c.2-12 4.2-24 10-34.5s13.4-20.6 23.4-27.6c4.1-3 .2-9.8-4-6.9a90.4 90.4 0 0 0-37.3 69c-.1 5.1 7.8 5.2 8 0Z" class="cls-13"/><path d="M366.8 45.6c.4-7 2.5-16 8.7-20 8.4-5.7 18.4 1.7 25 6.9 1.7 1.3 4 1.6 5.6 0 1.4-1.4 1.7-4.3 0-5.6-9.4-7.5-22.2-15.8-34.2-8.4-9.1 5.5-12.4 17-13 27.1a4 4 0 0 0 4 4 4 4 0 0 0 4-4Z" class="cls-13"/><path d="M402.4 39a148.1 148.1 0 0 1 44.4-8.7c5-.2 5-8.2 0-8a154.8 154.8 0 0 0-46.5 9.1 4 4 0 0 0-2.8 4.9 4 4 0 0 0 5 2.8Z" class="cls-13"/><path d="M448 23.8a61.8 61.8 0 0 1 10.5-10.9c4-3.1 8-6.1 13.2-4.4A36 36 0 0 1 491 27.1c2.2 4.6 9 .6 6.9-4C493 13 483.3 2.9 472.2.4c-7-1.6-12.6 1.7-18 5.9a70.8 70.8 0 0 0-13 13.5c-1.3 1.7-.3 4.4 1.4 5.4 2 1.2 4.1.3 5.4-1.4Z" class="cls-13"/><path d="M488.7 31.4a79 79 0 0 1 43.8 15.2c12 8.4 22.8 20.4 25.6 35.2 1 5 8.6 2.9 7.7-2.1-3.2-16.5-15.2-30-28.5-39.4a86.5 86.5 0 0 0-48.6-16.9c-5 0-5 8 0 8ZM388.2 77.8a16.6 16.6 0 0 0 5.3.2 17.7 17.7 0 0 1 3.8 0l-1-.2a8 8 0 0 1 1.7.5l-1-.4a4.6 4.6 0 0 1 .7.3l.3.1c.5.4-.6-.5-.4-.2a1 1 0 0 0 .3.2c.3.2-.5-.7-.3-.4l.4.8-.4-1a4.3 4.3 0 0 1 .2 1l-.1-1a5 5 0 0 1 0 1l.1-1a7 7 0 0 1-.4 1.4l.4-1-.4 1c-.1.3-.2.3-.4.5-.3.6.5-.6.2-.2a19.2 19.2 0 0 1-1.6 1.6 26.2 26.2 0 0 0-3.4 3.2 4.3 4.3 0 0 0-1.1 2.8 4 4 0 0 0 1.1 2.8 4 4 0 0 0 2.9 1.2 3.9 3.9 0 0 0 2.8-1.2 41.9 41.9 0 0 1 4-3.9 11.7 11.7 0 0 0 3.5-5.9 8 8 0 0 0-2.1-7.5 10.6 10.6 0 0 0-6.5-2.6c-2.3-.2-4.5.5-6.8.2l1 .1h-.7a4 4 0 1 0-2 7.6Zm90.4-26.2a27.6 27.6 0 0 0-12.7 8.8 4 4 0 0 0-1 1.8 4 4 0 0 0 0 2.1 4 4 0 0 0 2.8 2.8 34.4 34.4 0 0 0 13.4 1.6 4.2 4.2 0 0 0 2.8-1.1 4 4 0 0 0 1.2-2.8c-.1-2-1.8-4.2-4-4a32.2 32.2 0 0 1-6.8-.2l1 .1a31.4 31.4 0 0 1-5.6-1.3l1.7 6.6a24.3 24.3 0 0 1 4.2-4.2l-.8.7a24 24 0 0 1 5.3-3.1l-1 .4 1.6-.6a4.2 4.2 0 0 0 2.4-1.8 4 4 0 0 0 .3-3c-.6-2-2.7-3.6-4.8-2.9Zm-63.5 22.7a12.7 12.7 0 0 0 14.5 9.2c6.7-1.3 10.5-8.2 9.5-14.6l-6.6 3.9c4.5 3.5 9.8 7 15.8 5.2 6-1.8 8.2-8 6.7-13.7-1.3-5-9-2.8-7.6 2.1.5 2 .2 4-2.1 4.2a6.6 6.6 0 0 1-2.9-.6 21.2 21.2 0 0 1-4.3-2.8c-3.2-2.6-7.2-.2-6.6 3.8v.7c0-.5-.2.7-.2.7a5.3 5.3 0 0 1-1 1.8 5 5 0 0 1-2.5 1.6 4.7 4.7 0 0 1-1.3-.1s-1.2-.4-.7-.2a6.8 6.8 0 0 1-1.1-.6 4.5 4.5 0 0 1-1.9-2.7c-1.2-5-8.9-2.9-7.6 2.1ZM232 470a54.2 54.2 0 0 0 23 25.6 4 4 0 1 0 4-6.8l-3.4-2.2-1.6-1.1-.5-.4-.5-.4a51.3 51.3 0 0 1-5.9-5.6l-1.2-1.4-.6-.8-.3-.4-2.3-3.2a50.5 50.5 0 0 1-3.8-7.3c-.8-1.9-3.7-2.4-5.4-1.4-2 1.3-2.3 3.4-1.4 5.5Zm-11.2 18.6a68.3 68.3 0 0 0 18.5 18.6 4 4 0 0 0 5.4-1.5 4 4 0 0 0-1.4-5.4c-.8-.5-1.6-1-2.3-1.7l-.7-.5s.6.5 0 0l-1.2-1q-2.3-1.8-4.4-4a63.4 63.4 0 0 1-3.9-4.2l-.9-1.1c-.6-.8.5.6 0-.2l-.5-.5-1.8-2.5a4 4 0 0 0-5.4-1.5c-1.7 1.2-2.7 3.6-1.4 5.5Zm666-390.3a32.4 32.4 0 0 1 9.4 30.2 4 4 0 0 0 2.8 4.9 4 4 0 0 0 4.9-2.8 40.4 40.4 0 0 0-11.5-38c-3.7-3.5-9.4 2.1-5.6 5.6Zm16.8-12.6 7.1 14.3a4 4 0 0 0 5.5 1.4 4 4 0 0 0 1.4-5.4l-7.1-14.3a4 4 0 0 0-5.5-1.4 4 4 0 0 0-1.4 5.4Z" class="cls-13"/></g></g></g></svg>