<svg xmlns="http://www.w3.org/2000/svg" viewBox="0 0 418.8 83.59"><defs><style>.cls-1{fill:#333;}.cls-2{fill:none;stroke:#333;stroke-miterlimit:10;stroke-width:5px;stroke-dasharray:18;}</style></defs><g id="Layer_2" data-name="Layer 2"><g id="Layer_1-2" data-name="Layer 1"><path class="cls-1" d="M80.66,69H70.13L60.56,46.57,52.14,26.86l-6.6,15.21.39.77L47.65,47l1.05,2.39L57.12,69H23.54L32,49.34,33,47l1.72-4.11.38-.77-6.5-15.21L20.09,46.57,10.52,69H0L8.42,49.34,9.47,47l1.72-4.11,8.9-20.67L28.51,2.46l.1.1v-.1L37,22.17l3.35,7.65,3.25-7.65L52.05,2.46v.1l.09-.1,8.42,19.71,8.9,20.67L71.18,47l1.06,2.39ZM42.48,59.39l-2.1-5.07-2.2,5.07Z"/><path class="cls-1" d="M96.06,69H86.4V2.46h9.66Z"/><path class="cls-1" d="M115.19,69h-9.66V2.46h11.39l1.72,2.68.09.09,2.11,3.26-.1.09,27.08,44.49V2.46h9.66V69h-9.66q-8.23-12.82-16.36-25.6T115.19,17.67Z"/><path class="cls-1" d="M202.17,2.46H230.1v9.66H202.17V69H192.5V12.12H164.56V2.46h37.61Z"/><path class="cls-1" d="M246.85,69h-9.67V2.46h42.29v9.66H246.85V27.91h32.62l-7.65,9.66h-25V59.29h32.62V69Z"/><path class="cls-1" d="M295.64,69H285.12l8.41-19.62L294.59,47l1.82-4.11,8.8-20.67,8.42-19.71v.1l.09-.1,8.42,19.71L331,42.84,332.76,47l1.05,2.39L342.23,69h-33.1l4-9.67H327.6l-5.46-12.78-8.42-19.65-8.51,19.71Z"/><path class="cls-1" d="M385.77,2.46h9.66V41.11a86.55,86.55,0,0,1-.67,11.49,18.93,18.93,0,0,1-3.12,8.46,15.94,15.94,0,0,1-7.09,5.46c-3.1,1.3-7.33,2.09-12.7,2.34V69h-4.22q-8.24-.39-13-2.35a15.78,15.78,0,0,1-7.24-5.45,19.32,19.32,0,0,1-3.16-8.52,82,82,0,0,1-.72-11.53V2.46h9.66V41.11a50.25,50.25,0,0,0,.57,8.18,12.28,12.28,0,0,0,2.3,5.6,10,10,0,0,0,4.93,3.25,31.73,31.73,0,0,0,16.93,0,10.28,10.28,0,0,0,5-3.25,11.9,11.9,0,0,0,2.34-5.6,49,49,0,0,0,.58-8.18Z"/><path class="cls-1" d="M418.54,67.8H408.31V65.68h8.54V61.85h1.69Z"/><path class="cls-1" d="M411,57.34a3.36,3.36,0,0,1,1.28-2.82,4.08,4.08,0,0,1,2.6-.84,3.72,3.72,0,0,1,2.91,1.25,3.58,3.58,0,0,1-.26,5.09,3.8,3.8,0,0,1-2.65,1A3.92,3.92,0,0,1,412,59.91,3.45,3.45,0,0,1,411,57.34Zm6.21,0c0-1.05-.78-1.57-2.33-1.57s-2.43.52-2.43,1.57.81,1.57,2.43,1.57S417.22,58.38,417.22,57.34Z"/><path class="cls-1" d="M418.54,48.62v1.59l-7.34,2.86V51l4.85-1.57-4.85-1.67V45.65l.76.3.88.36Z"/><path class="cls-1" d="M415.54,37.67v5a1.9,1.9,0,0,0,1.73-1.89,4.5,4.5,0,0,0-.65-2.2l1.08-.52a4.24,4.24,0,0,1,1,2.91A3.94,3.94,0,0,1,417.67,44a3.73,3.73,0,0,1-2.76,1A3.91,3.91,0,0,1,412,43.82a3.47,3.47,0,0,1-1-2.59,3.29,3.29,0,0,1,1.18-2.71,3.93,3.93,0,0,1,2.6-.85ZM414,42.83V39.71c-1,.06-1.58.57-1.58,1.54S413,42.71,414,42.83Z"/><path class="cls-1" d="M411.91,30.12a3.06,3.06,0,0,1-.9-2.26,3.34,3.34,0,0,1,.4-1.66,2.09,2.09,0,0,1,1-1,2.69,2.69,0,0,1-1-1.11,3.4,3.4,0,0,1-.4-1.64c0-1.73,1-2.59,3.14-2.59h4.39v2.06H414.7a2.73,2.73,0,0,0-1.53.31,1.2,1.2,0,0,0-.45,1.06,2.1,2.1,0,0,0,.84,1.73h5v2h-4.07a2.05,2.05,0,0,0-1.35.34,1.43,1.43,0,0,0-.4,1.16,2.77,2.77,0,0,0,.15.92,1,1,0,0,0,.35.55h5.32v2H411.2V30.35l.71-.14Z"/><path class="cls-1" d="M409.33,18.08a1.22,1.22,0,0,1-.9-.37,1.16,1.16,0,0,1-.38-.86,1.23,1.23,0,0,1,.37-.91,1.21,1.21,0,0,1,.91-.39,1.23,1.23,0,0,1,1.27,1.3,1.18,1.18,0,0,1-.36.88A1.28,1.28,0,0,1,409.33,18.08Zm1.87-2.3h7.34v2H411.2Z"/><path class="cls-1" d="M411.91,11.71a2.59,2.59,0,0,1-.63-1A3.19,3.19,0,0,1,411,9.51a2.46,2.46,0,0,1,.76-2,3.91,3.91,0,0,1,2.46-.62h4.31V8.93h-4.23c-1.06,0-1.59.46-1.59,1.4a2,2,0,0,0,.16.76,1.21,1.21,0,0,0,.34.55h5.32v2H411.2V12c.28,0,.52-.11.71-.16Z"/><path class="cls-1" d="M412.84.32V2.43h3.63q.81,0,.81-.54a2.57,2.57,0,0,0-.42-1.21l1-.68a4,4,0,0,1,.9,2.54c0,1.29-.71,1.94-2.13,1.94h-3.83v1H411.2v-1h-1.31c-.29-.54-.65-1.22-1.08-2h2.39V.32Z"/><line class="cls-2" x1="0.12" y1="81.09" x2="158.62" y2="81.09"/></g></g></svg>