<svg xmlns="http://www.w3.org/2000/svg" viewBox="0 0 886.92 671.37"><defs><style>.cls-1{isolation:isolate;}.cls-2{fill:#f9f8f7;}.cls-3{fill:#ffb955;}.cls-4{fill:#c8b1af;}.cls-5{fill:#fff;}.cls-6{fill:#f47833;}.cls-7{fill:#ff976e;}.cls-8{fill:#b28885;}.cls-9{fill:#fdc0b1;}.cls-10{opacity:0.43;mix-blend-mode:multiply;}.cls-11{fill:#f7c9b6;}.cls-12{fill:#ffd500;}.cls-13{fill:#9c5043;}.cls-14{fill:#ff83aa;}</style></defs><g class="cls-1"><g id="Layer_2" data-name="Layer 2"><g id="Layer_1-2" data-name="Layer 1"><path class="cls-2" d="M815.33,505.5a120,120,0,0,0-2.05-13,51.82,51.82,0,0,0-2.68-10.37C798,441.41,764.36,409,722.41,398.8c-5.83-14.91-19.56-36.26-36.23-37.41-7.76-.54-14.56,3.61-20.35,8.33-9.22,7.52-18.17,15.28-27.63,22.47a81.6,81.6,0,0,0-35.9,7.08c-7.32-7.39-18.81-18.58-29.6-17.29-12.66,1.5-17.79,18.53-22.54,28a3.53,3.53,0,0,0-.28.83A2.81,2.81,0,0,0,548,414.2c4.88,28.11-2,57.36-13.15,83.24a200.32,200.32,0,0,1-18,33c-3.39,5-7.55,9.92-11.08,15.12a2.79,2.79,0,0,0-3,1.65A54,54,0,0,0,499,559.93a45.17,45.17,0,0,0,2.58,28.39,60.69,60.69,0,0,0,12.48,20.79c12.58,13.74,35.72,25.21,56.36,25.91-.25,9-1.55,21.36,2.37,28.52,3.36,6.14,10.19,5.31,16.37,5.49a537.48,537.48,0,0,0,85.62-4.61,586.91,586.91,0,0,0,78.73-15.52c7.55-2.06,19.7-3.36,22.57-12,3.18-9.61-3.72-23-7.09-31.66a5.85,5.85,0,0,0-1.42-2.17c1.48-.71,2.91-1.35,3.52-1.76a95.67,95.67,0,0,0,25.58-24.56A106,106,0,0,0,815.33,505.5Z"/><path class="cls-3" d="M545.82,381.91c-2.67-15.23-6.42-30.36-10.46-45.36-4.45-7-9.24-13.8-14.07-20.56a3.4,3.4,0,0,1-.56-2.65,4,4,0,0,1-2.05.23,3.77,3.77,0,0,1-3-4.38,34.12,34.12,0,0,0,.83-5.59c0-.42,0-.84,0-1.26a16.36,16.36,0,0,1,2.49-15.18,53.2,53.2,0,0,1-.41-10,4.06,4.06,0,0,1,.09-.7q-5.09-18.35-10.18-36.68c-4.44-16-10.81-34.2-26.4-39.94-21.46-7.89-43.5,13.45-65.6,15.69-4.52-6.91-13.5-11.94-20.36-15a70.58,70.58,0,0,0-13-4.3c-.78-1.31-1.49-2.7-2.2-4.08-3.07-1.43-5.9-3.38-7.54-6.39-2.58-4.74-2-10.31-1.2-15.44,0-.09.05-.17.07-.25-5.5-16.52-12.88-34.32-29-40.22-12.06-4.42-25.41-.58-37.67,3.27-16.38,5.14-32.79,10.31-49.1,15.77l-.1.09c-6.39,5.25-13.09,10.27-20.9,13.2-7.65,2.87-16,3.92-23.95,5.44a3.25,3.25,0,0,1-3-1.3A504.13,504.13,0,0,0,144.19,197C92.3,226.76,40.78,273,22,331.61c-18.85,58.88-3.11,128.5,37.5,174.64,8.33,9.46,17.72,18.19,23.92,29.16,11,19.4,10.46,42.93,11,65.21.52,22.49,5,49.09,25.4,58.66,8.67,4.07,18.63,4.07,28.22,4l266.46-2.21c4.11,0,8.41-.12,12-2.06,11.32-6.09,7.34-23.22,1-34.41s-13.14-26.34-4.09-35.47C489.84,571.79,542.32,510.29,549,442,551,421.85,549.3,401.81,545.82,381.91Z"/><path class="cls-4" d="M739.45,410.16a2.16,2.16,0,0,0,.83-1.7,2.48,2.48,0,0,0-1.73-2.31,10.2,10.2,0,0,0-1.86-.56c-.66-.1-1.33-.12-2-.16-.51,0-1,0-1.51,0a5.24,5.24,0,0,0-2.78.08,1.59,1.59,0,0,0-.29.15c-10.48-17.83-23.49-42-44.65-43.42-9.48-.62-18.08,3.74-25.15,9.68-5,4.19-13.31,11.75-15.19,19.11-8,1.82-15.67,4.65-23.43,7a4.23,4.23,0,0,0-3.88,1.13c-1.81.49-3.61,1-5.43,1.35l0-.12a3.94,3.94,0,0,0-4.39-1.69,19.36,19.36,0,0,0-6.7,2.53c-10.33-11.08-21.86-23.79-36.67-12.8-19,14.05-14.51,44.79-15,65a2.32,2.32,0,0,0,.73,1.63,3.13,3.13,0,0,0,2.26,4.16c35.8,8.82,60.42-20.39,70.8-51,36.09,16.95,80.23,37.78,116.87,10.14A4.82,4.82,0,0,0,739.45,410.16Z"/><path class="cls-4" d="M592.67,640.72a35.47,35.47,0,0,0-8.89-4.05,3.9,3.9,0,0,0-2.42-.64c-.7-.16-1.39-.34-2.1-.46a4.88,4.88,0,0,0-3.94.95,1.93,1.93,0,0,0-1.28-.3,2.12,2.12,0,0,0-1.31.75c0-.2-.09-.4-.14-.6a2.12,2.12,0,0,0-2.56-1.52,2.15,2.15,0,0,0-1.52,2.56q1,4.88,1.91,9.75a2.31,2.31,0,0,0,2.52,1.71,2.17,2.17,0,0,0,.93-.35,2.72,2.72,0,0,0,2,.65,2.35,2.35,0,0,0,.45-.14,31.56,31.56,0,0,1-4.19,12.28c-2.1,3.55,1.09,7,4.56,7.32A16,16,0,0,0,592.44,660c1.47-2.81,1.91-6.14.17-8.93a7.54,7.54,0,0,0-.52-.63c.29-.18.56-.39.86-.57C596.55,647.62,596,642.85,592.67,640.72Z"/><path class="cls-4" d="M773.56,624.57a108.77,108.77,0,0,0-5.26-17,4.33,4.33,0,0,0-3.12-2.84,3,3,0,0,0-4.41-.72c-4.92,3.5-14.41,12.26-9.51,19a7.06,7.06,0,0,0,3.43,2.41c1.25.47,3.9.09,4.88.82-1.43-1.07-1.39,7-.74,8.52,2.36,5.7,13.1,10.65,16,2.74C776.24,633.76,774.36,628.24,773.56,624.57Zm-15.09-6.77c-.51-.39.75-2.15,2.27-3.9.22,1.45.45,3,.7,4.49A6.39,6.39,0,0,1,758.47,617.8Z"/><path class="cls-5" d="M275.24,254.3c-2.07-1.57-4.94-1-6.88.51a6.31,6.31,0,0,0-2.41,5.34,14.32,14.32,0,0,0-2.38,4.57,4.19,4.19,0,0,0,1.69,4.36,4.37,4.37,0,0,0,4.63.2,21.34,21.34,0,0,0,3.73-2.27,3.77,3.77,0,0,0,1.2.19,3.83,3.83,0,0,0,3.63-3.85,7.22,7.22,0,0,1,1.39-3.59C281.64,256.38,278.1,253.51,275.24,254.3Z"/><path class="cls-5" d="M407.2,322a9,9,0,0,0-3.68,3c-2.71-.52-5.61,1-5.47,4.22l.3,7.44c.25,6,9.89,5.58,9.24-.28,0-.4-.09-.81-.14-1.21a3.73,3.73,0,0,0,3-4.66,9.06,9.06,0,0,0,1.94-3.6C413.1,324.08,410.08,320.74,407.2,322Z"/><path class="cls-5" d="M337.52,152.76c-4.88-22.31-38-5.17-47.56,3-2.34,2-1.37,5.7.91,7.32a3.59,3.59,0,0,0,2.54,3.67L315,173.84c3.93,1.29,8.31,3.51,12.4,1.68C334.41,172.4,339.05,159.75,337.52,152.76Z"/><path class="cls-5" d="M482.55,238.37c-3.13-6.66-10.28-13.67-18.22-10.08a11.19,11.19,0,0,0-5.64,5.88,12.4,12.4,0,0,0-4,5.29,3.53,3.53,0,0,0,.78,4,13.74,13.74,0,0,0-.19,2.8c.17,3.94,2.62,7.52,5.91,10.15a5.16,5.16,0,0,0,1.61,1.44A56.33,56.33,0,0,1,478,271c2.35,2.86,8,1.06,8.44-2.56C487.63,258.3,486.93,247.71,482.55,238.37Z"/><path class="cls-5" d="M345.12,650c-10.86-38.07-30.33-77.42-74.52-81.81-19.63-2-39.93,3.31-54.58,16.92-11.75,10.91-19,28.93-22.64,44.19-4.89,20.37.14,32.06,22,32.85,14.14.52,26.28-1.54,40.34-1.15,27.72.76,53.83-.13,81.44,1.06.36.22.73.4,1.09.63,4.16,2.63,8.86-1.51,8.67-5.78A8.62,8.62,0,0,0,345.12,650Z"/><path class="cls-6" d="M402.46,207.52a9.75,9.75,0,0,0-4.92-1.94,7.93,7.93,0,0,0-4-6.22,8.66,8.66,0,0,0-11.68,3.06c-4.92,8.3-15.45,20.82-7.62,30.42,11,13.42,27.61-4.28,31.71-15C407.36,214.27,405.32,209.65,402.46,207.52Z"/><path class="cls-6" d="M374.55,191.72a9.56,9.56,0,0,0-6.69-2.77c-2.39.11-5.06.88-6.68,2.77l-2,2.38h0L355.9,198a10,10,0,0,0-2.74,6.62,9.35,9.35,0,0,0,9.35,9.35,9.32,9.32,0,0,0,6.61-2.74c1.81-2.05,3.7-4,5.43-6.16s2.77-4,2.77-6.69A9.65,9.65,0,0,0,374.55,191.72Z"/><path class="cls-6" d="M424.77,221.44a9.41,9.41,0,0,0-13.06,0l-2.44,2.29a7.78,7.78,0,0,0-1.51,2c-.56.64-1.12,1.29-1.69,1.93a8,8,0,0,0,9.63,12.49l1.59-.91a9.51,9.51,0,0,0,5-2.49l2.44-2.29C428.31,231.19,428.36,224.74,424.77,221.44Z"/><path class="cls-6" d="M140.31,586.39c-7.19-1.22-14.25-2.41-21.5-3.22-7-.79-14.89-2.62-21,1.88-4.86,3.58-5.76,9.24-1.79,14,9.33,11.08,32.09,6,44.29,3.17C147.84,600.42,148.39,587.75,140.31,586.39Z"/><path class="cls-6" d="M139.22,613.5c-10.92-1.68-25.52-4.84-35.6.92-6.85,3.91-5.78,15.5,2.26,17.31,9.82,2.2,21.27-2.14,31.25-2.85C145.31,628.31,148.5,614.92,139.22,613.5Z"/><path class="cls-7" d="M249.6,272.11c-16.73-16.62-52.13-22.42-66.5.29-8,12.73-4.86,27.12,3.77,37.62,9.83,16.3,30.5,25.21,49.53,19.89C262.72,322.56,268.13,290.53,249.6,272.11Z"/><path class="cls-7" d="M460,383.86c-11.65-12.67-30.76-23.11-48.18-17.6-17.8,5.63-24.18,27-16.14,42.89a38.88,38.88,0,0,0,15,15.49c12.16,12.89,36.13,18.93,50.59,6.54C476.25,418.36,472,396.91,460,383.86Z"/><path class="cls-8" d="M583.42,640.32c-4.15,1.46-9.41,3.33-12.16,6.9-2.15,2.78,1.38,6.16,4.22,5.5,1.89-.44,3.53-1.73,5.26-2.58a37,37,0,0,1,4.86-1.93C590.6,646.57,588.38,638.57,583.42,640.32Z"/><path class="cls-8" d="M584.71,654.93a3.13,3.13,0,0,0-4.07-.81,22.28,22.28,0,0,1-2.75,1.62,5.86,5.86,0,0,1-.89.39l-.11,0a2.33,2.33,0,0,0-.25.07l-1.71.75c-1.62.72-2.08,3-1.46,4.46a3.57,3.57,0,0,0,4.21,2.07,17.84,17.84,0,0,0,6.78-4.45A3.16,3.16,0,0,0,584.71,654.93Z"/><path class="cls-8" d="M765.1,612.24a15.37,15.37,0,0,0-11.22,1.87,4.45,4.45,0,0,0,4.49,7.68,5.4,5.4,0,0,1,2.44-1,7.35,7.35,0,0,1,1.93,0,4.56,4.56,0,0,0,5.46-3.1C768.8,615.53,767.47,612.7,765.1,612.24Z"/><path class="cls-8" d="M769.35,627.78l-7,.62a3.49,3.49,0,0,0-3.39,3.39c0,1.66,1.56,3.62,3.39,3.39l7-.85a3.38,3.38,0,0,0,3.28-3.28A3.3,3.3,0,0,0,769.35,627.78Z"/><path class="cls-9" d="M578.27,408.33a13.39,13.39,0,0,0-22.43,5.3c-.5.5-1,1-1.4,1.51-2.86,3.3.13,9.64,4.8,7.83,6.13-2.38,12.27-4.68,18.27-7.36C580.39,414.32,580.12,410.22,578.27,408.33Z"/><path class="cls-9" d="M702.25,387.66c-1.1-5.19-5-10.57-10.69-10.83a9.66,9.66,0,0,0-7.59,3.26c-3.83,1.21-5.64,7.22-1.1,9.11.4.16.81.3,1.22.43v0l.22.06.66.16a46,46,0,0,1,10,3.71C699.1,395.66,703.15,391.85,702.25,387.66Z"/><path class="cls-9" d="M597.67,507c-.42-10.32-11.51-11.52-19.37-9.56S561.93,504.7,558.1,512c-4.64,8.79,2.81,17.36,11.52,18.76s18-3.21,24.21-9.16C598.21,517.38,599.6,511.71,597.67,507Z"/><path class="cls-9" d="M737.47,454.49c-11.26-1.25-26.61-.3-35.41,8-4,3.8-5.9,10-2.07,14.68s11.55,5.09,17.16,4.81c4.64-.24,10-1.06,14-3.83,6.28-3,11.33-8.11,12.16-14.32C743.8,460,742,455,737.47,454.49Z"/><g class="cls-10"><path class="cls-11" d="M140.22,544.51c-7.25-12.42-16-24-24.25-35.78-3.94-5.63-11.11-4.49-14.36-.45-8.56-9.85-17.21-19.58-24.37-30.58a198.86,198.86,0,0,1-22.88-48c-11-34.54-15-72.51-8-108.22,2.19-11.18-13.52-15.67-17.13-4.73-13.23,40-14.39,82-2,122.33,11.64,37.85,34,80.65,69,101.55,7,4.15,13.28,1.4,16.49-3.72,3.51,5.85,7.14,11.61,11.08,17.15C130.82,563.82,146.49,555.23,140.22,544.51Z"/></g><g class="cls-10"><path class="cls-11" d="M201.82,481.86c.71-7.52-12.3-9.38-13.32-1.8-1.36,10.08-2.31,20.23-1.2,30.38,1,8.76,14.2,9.24,14,0C201.15,500.87,200.91,491.41,201.82,481.86Z"/></g><g class="cls-10"><path class="cls-11" d="M633.53,612.39c-.26-1.3-.64-2.58-1-3.86l-2.17-8.26a8.77,8.77,0,1,0-16.91,4.67q1.23,4.08,2.48,8.16c.38,1.27.73,2.56,1.19,3.8a13.5,13.5,0,0,0,3.6,5.14c3.86,3.8,11,2.21,12.31-3.25A14.14,14.14,0,0,0,633.53,612.39Z"/></g><g class="cls-10"><path class="cls-11" d="M701.87,591.39a4.83,4.83,0,0,0-1.15-1.43,5.08,5.08,0,0,0-1-1.38,6.85,6.85,0,0,0-3-1.78,8.32,8.32,0,0,0-6.31.35,10.06,10.06,0,0,0-4.72,4.07,9.45,9.45,0,0,0,1.21,11.66,9.27,9.27,0,0,0,11.62.85,10.69,10.69,0,0,0,4.15-5.37A9.2,9.2,0,0,0,701.87,591.39Z"/></g><g class="cls-10"><path class="cls-11" d="M610.05,408.16c3.63-5.76-1.8-12.41-7.38-12.63a18.06,18.06,0,0,0-6.33-4,17.54,17.54,0,0,0-10.74-6,20,20,0,0,0-28.12,2.72c-2.87,3.47-5,9.62-6.1,16.78-.2-6.21-.65-12.41-1.39-18.54-4.06-33.46-15.47-72.35-42.52-94.78,1-13.85,2.72-26.87.3-41-2.53-14.8-9.19-26.81-18.29-38.57-2.8-3.62-9.55.32-7.81,4.55,8.46,20.53,16.93,53.7,5.91,74.63-1.65,3.13-2.2,7.53,0,10.61,11,15.38,21.14,29.66,27,47.88a187,187,0,0,1,9.13,53.94c.77,35.93-8.26,71.57-27.29,102.14-35.41,56.87-115,88.22-177.08,55.69-13.64-7.15-24.88,12.17-12,20.59,23.87,15.66,52.75,36.77,54.14,68.1.32,7.16,5.83,13.33,13.29,13.3,13.53-.06,27.05-.09,40.58,0,8.53.07,15.33-8.59,12.86-16.88s-5.42-17.68-9.66-26.16a9.52,9.52,0,0,0,2.77-4.7c1.75-7.12,1.52-13.2-1.62-19.38a165.09,165.09,0,0,0,62.87-30.74,162.53,162.53,0,0,0,17.28-15.84c-2.69,23-1.24,44.23,17,61.24,15.79,14.74,36,20.82,56.69,24.4-1.79,10.47,0,21.55,7.24,29.43,4.53,4.91,13.64,1.17,13.37-5.54-.44-10.93-1.89-17.37,4.16-27.27a11.52,11.52,0,0,0,1.12-8.41c5.91-6.6,2.65-18.91-8.94-20.47-17.39-2.34-26.54-22.36-29.48-37.31-3.6-18.3-1.42-37.92,2.53-56C571.53,473.36,590.23,439.63,610.05,408.16ZM370.68,603.91c-.9-1.15-1.82-2.29-2.78-3.4l.69,0a23.73,23.73,0,0,1,3.21,3C371.42,603.69,371,603.78,370.68,603.91ZM549.16,456.35l-3.53,6.38a214.63,214.63,0,0,0,4-21.93A62.14,62.14,0,0,1,549.16,456.35Zm-34.43,88.08a8,8,0,0,0-6-4.69,175.94,175.94,0,0,0,10.78-15q-.78,3.71-1.34,7.49A95.84,95.84,0,0,0,514.73,544.43Z"/></g><path class="cls-12" d="M99.14,104.61a57,57,0,0,0-49.56,56.54A57,57,0,0,0,0,104.61,57,57,0,0,0,49.58,48.07,57,57,0,0,0,99.14,104.61Z"/><path class="cls-12" d="M886.92,360.52a57,57,0,0,0-49.55,56.54,57,57,0,0,0-49.58-56.54A57,57,0,0,0,837.37,304,57,57,0,0,0,886.92,360.52Z"/><path class="cls-12" d="M109.79,26.34A26.54,26.54,0,0,0,86.71,52.67a26.55,26.55,0,0,0-23.1-26.33A26.57,26.57,0,0,0,86.71,0,26.55,26.55,0,0,0,109.79,26.34Z"/><path class="cls-12" d="M788.19,338.44a23.09,23.09,0,0,0-20.08,22.9A23.09,23.09,0,0,0,748,338.44a23.1,23.1,0,0,0,20.08-22.9A23.1,23.1,0,0,0,788.19,338.44Z"/><path class="cls-12" d="M796.22,397.65a16.17,16.17,0,0,0-14.06,16,16.17,16.17,0,0,0-14.06-16,16.17,16.17,0,0,0,14.06-16A16.17,16.17,0,0,0,796.22,397.65Z"/><path class="cls-13" d="M334.94,182.57c19.13,4,37.62,11.31,54.94,20.29,17,8.82,33.72,19.52,46.6,33.87,3.22,3.6,8.5-1.71,5.29-5.29-13.27-14.78-30.6-25.95-48.11-35-17.88-9.27-37-16.88-56.74-21.05-4.69-1-6.7,6.22-2,7.22Z"/><path class="cls-13" d="M306.68,255.34c-.48-4.13-4.79-9.34-8.33-11.23a19.37,19.37,0,0,0-13.42-2c-16.34,3.4-35.26,19.55-28.19,37.85a20.1,20.1,0,0,0,4.36,6.83,20.69,20.69,0,0,0,6.67,5.9,22.85,22.85,0,0,0,19.55,1.59c5.92-2.29,10-6.11,13.71-11.21C306.94,274.87,307.79,265,306.68,255.34Zm-36.14,11.24c-5.76,0-6.38-9-.58-9S276.35,266.58,270.54,266.58Z"/><path class="cls-13" d="M423.84,313.25l-.55-.23-.17-.07c-10.26-4.51-22.61-.11-28.39,9.66-4.68,7.91-5.91,19.32-1.52,27.59.23.45.51.86.77,1.28a24.38,24.38,0,0,0,8.64,9.7c14.19,9.27,30.48-7.61,33.31-20.72C438.3,329.48,434.77,317.6,423.84,313.25Zm-19.37,24.36c-5.76,0-6.38-9-.58-9S410.28,337.61,404.47,337.61Z"/><path class="cls-13" d="M235.92,169.07c19.24-13.25,39.51-25.72,62-32.65,10.64-3.29,22-5.79,33.2-4.85a33,33,0,0,1,26.08,15.93c7.16,11.63,8.34,25.57,9.45,38.86.4,4.77,7.89,4.81,7.49,0C373,173.3,371.8,160,366,148c-5-10.34-13.5-18.66-24.63-22.06-11.77-3.6-24.61-2-36.37.79A163,163,0,0,0,269.37,140c-13,6.5-25.27,14.35-37.23,22.58-3.94,2.71-.2,9.2,3.78,6.46Z"/><path class="cls-13" d="M427.56,221c14.47-12.08,35.67-26.48,55.06-16.36C491,209,496,217.52,499.3,226.06a191.77,191.77,0,0,1,8.91,31.48,224.31,224.31,0,0,1,4.4,38.84c.13,4.8,7.62,4.82,7.48,0-.67-24.63-4.71-50.28-13.94-73.24-3.9-9.7-9.52-19.16-18.87-24.46s-21.08-5.73-31.39-3c-12.8,3.46-23.61,11.64-33.62,20-3.7,3.09,1.62,8.36,5.29,5.3Z"/><path class="cls-13" d="M506,295.31c32,44.06,45.2,100.75,37.64,154.55-5.52,39.2-23.77,76.62-53.71,102.94-19.76,17.37-44,28.49-69.74,33.44-4.72.91-2.72,8.12,2,7.21a155,155,0,0,0,66.34-29.81,162.11,162.11,0,0,0,41-48.31c23.25-41.37,28.28-90.94,19.69-137.18a214.36,214.36,0,0,0-36.78-86.61c-2.8-3.86-9.29-.13-6.46,3.77Z"/><path class="cls-13" d="M255.56,162.39c-35.28-.88-70.31,6.88-102.39,21.42a256.25,256.25,0,0,0-83.38,60.75C47.16,269.45,29.38,299,19.64,331.31s-10.87,66.87-2.29,99.52a190.47,190.47,0,0,0,21.27,49.82c11.27,18.66,25.29,36.51,41.4,51.23a144.68,144.68,0,0,0,12.85,10.45c3.91,2.82,7.64-3.67,3.77-6.46C78.82,523,64.21,505.33,51.82,487.32a190.16,190.16,0,0,1-24.07-47.74,174.53,174.53,0,0,1-3.68-96.05c7.62-31.39,23.23-60.62,43.82-85.41a250.71,250.71,0,0,1,77.87-62.44c30-15.45,63.34-24.69,97.14-25.78,4.22-.13,8.44-.13,12.66,0,4.82.12,4.82-7.36,0-7.48Z"/><path class="cls-13" d="M88,541.8c-.05,14.8,1.58,29.63,3.51,44.29,2.17,16.41,4.89,32.77,8.4,49,1.67,7.65,3.5,15.28,5.76,22.78,1.38,4.6,8.6,2.64,7.21-2a378,378,0,0,1-9.62-42.44c-2.88-16.09-5.2-32.3-6.64-48.58-.68-7.66-1.16-15.34-1.13-23,0-4.82-7.47-4.82-7.49,0Z"/><path class="cls-13" d="M578.34,419c13.15-10.67,30.68-16.43,46.83-20.62s33.89-7.56,50.46-5c4.71.72,6.74-6.49,2-7.21-13.67-2.09-27.75-.48-41.25,2.07a188.33,188.33,0,0,0-44.29,13.93,90.51,90.51,0,0,0-19,11.57c-3.74,3,1.59,8.3,5.3,5.29Z"/><path class="cls-13" d="M646.93,393.29a131.39,131.39,0,0,1,17.68-19.21c5.91-5.28,14.69-13,23.28-10.83,8.11,2.09,14.29,10.85,19.24,17a160.83,160.83,0,0,1,16.33,25c2.26,4.26,8.72.48,6.46-3.77A169.81,169.81,0,0,0,711,373.21c-6-7.25-13.13-16-23-17.55-10.18-1.62-19.43,5.23-26.74,11.45a136.6,136.6,0,0,0-20.78,22.4c-2.88,3.86,3.61,7.59,6.46,3.78Z"/><path class="cls-13" d="M131,549.39c-5.9-7.5-12.13-14.85-17.66-22.63-4.5-6.34-8.69-14.11-5.89-22,6.23-17.59,28.82.74,36,8.47a60.85,60.85,0,0,1,13.38,23c1.45,4.58,8.67,2.62,7.21-2-5.76-18.23-19.28-34.13-36.9-41.85-9-4-18.84-3.4-24.56,5.44-5.2,8-4,17.82.16,26,2.72,5.36,6.59,10.06,10.29,14.76l12.7,16.14c3,3.78,8.24-1.55,5.29-5.3Z"/><path class="cls-13" d="M174.19,516.13a76.86,76.86,0,0,1,5.16-23.31,61.29,61.29,0,0,1,5.08-10.27c1.61-2.56,3.74-5.14,6.77-6,7.58-2.15,7.94,8,8.33,13a89.43,89.43,0,0,1-1.66,25.6c-1,4.7,6.21,6.71,7.21,2a97.16,97.16,0,0,0,2.13-24.35c-.28-6.63-.45-15.09-5.19-20.29-5.1-5.61-13.68-4.17-19,.24s-8.42,11.77-10.9,18.12a83.14,83.14,0,0,0-5.43,25.3c-.29,4.81,7.19,4.79,7.48,0Z"/><path class="cls-13" d="M116.33,448.51a106.71,106.71,0,0,1,37.52-26.1c1.87-.76,3.19-2.48,2.61-4.6-.49-1.77-2.72-3.38-4.6-2.61a115.18,115.18,0,0,0-40.82,28c-3.28,3.52,2,8.82,5.29,5.29Z"/><path class="cls-13" d="M124.49,468.83a48.82,48.82,0,0,1,4.43-4.32c.4-.35.81-.69,1.22-1,.19-.15.39-.31.08-.07l.71-.53c.86-.63,1.73-1.23,2.63-1.8a48.32,48.32,0,0,1,5.42-3l.64-.29.53-.24.37-.15.66-.26c1-.4,2.1-.76,3.18-1.09a3.74,3.74,0,0,0-2-7.21,51.8,51.8,0,0,0-23.17,14.67,3.74,3.74,0,0,0,5.29,5.29Z"/><path class="cls-13" d="M383.56,599c4.4,8.9.83,19.51-.16,28.78-.95,9,.45,18.76,7.73,24.87a16.16,16.16,0,0,0,21.12.19c6.47-5.27,9.39-13.75,11.43-21.56A112.52,112.52,0,0,0,427,595.89c-.31-4.78-7.79-4.82-7.48,0a105.93,105.93,0,0,1-1.75,27.59c-1.44,7.13-3.21,15.08-7.76,21-4,5.17-10.25,6.63-15.07,1.57-5.73-6-4.66-15.08-3.5-22.59,1.49-9.56,3-19.17-1.46-28.19-2.13-4.32-8.58-.53-6.46,3.77Z"/><path class="cls-13" d="M320.67,296c-6.61,7.2-13.94,17.67-7.21,27.33a12.06,12.06,0,0,0,12.79,4.86c5.31-1.27,9.53-5.52,12.89-9.58L332.89,315c-.73,5.12-1.34,10.62.4,15.62a13.69,13.69,0,0,0,11.78,9.49c5.27.5,10.8-2.12,14.28-6,4.12-4.57,6.13-10.43,8-16.19,1.46-4.6-5.76-6.57-7.22-2-2.11,6.65-5.2,16.5-13.71,16.76-7.88.24-7-10.56-6.28-15.7a3.93,3.93,0,0,0-1.72-4.23,3.76,3.76,0,0,0-4.54.59c-2.79,3.37-10.75,12.15-14.57,5.22-3.49-6.34,2.72-12.94,6.69-17.25,3.25-3.55-2-8.85-5.3-5.29Z"/><path class="cls-13" d="M715.09,404.4c36.14,5.39,68.68,31.72,86,63.27,8.7,15.9,14.32,33.9,14.55,52.11a77.77,77.77,0,0,1-16.93,49.76c-13,16.47-30.56,28.55-49.17,37.84-4.3,2.15-.52,8.61,3.78,6.46,17.47-8.72,34.09-19.94,47.06-34.68s21.16-32.22,22.53-51.95c2.67-38.45-17.67-76.78-46.45-101.21-16.86-14.31-37.27-25.52-59.35-28.81-4.71-.7-6.74,6.51-2,7.21Z"/><path class="cls-13" d="M497.7,547.11c-4.18,10.25-6.1,21.21-4.5,32.23a59.36,59.36,0,0,0,10.91,25.92c11.66,16.14,28.55,27.89,48.26,31.55,11.37,2.11,22.93,1.86,34.37.43,4.71-.59,4.77-8.08,0-7.48-17.86,2.24-36.51,1.62-52.62-7.25-15.24-8.38-28.79-23.49-32.86-40.67-2.62-11.1-.59-22.34,3.65-32.75,1.82-4.45-5.41-6.39-7.21-2Z"/><path class="cls-13" d="M603.25,394.87c-8.56-6.88-19.22-14.23-30.73-13.82a22.29,22.29,0,0,0-15.44,7c-5.17,5.4-7.77,12.5-10.19,19.42-1.6,4.55,5.63,6.51,7.21,2,3.25-9.28,7.94-21.2,19.61-20.93,9,.21,17.53,6.23,24.25,11.64a3.86,3.86,0,0,0,5.29,0c1.33-1.3,1.57-4,0-5.29Z"/><path class="cls-13" d="M615.8,488.35c3.18,6.5,8.14,13.88,16.43,13.18s11.72-10,13.42-16.86l-5.5,2.24c6.69,4.35,13.31,11.46,22,7.64,9.15-4,10.33-15.14,7-23.47a3.86,3.86,0,0,0-4.6-2.62c-1.79.49-3.36,2.71-2.61,4.6,1.83,4.66,3,13.63-3.86,15-2.49.5-4.8-.88-6.79-2.22-2.54-1.71-4.85-3.72-7.42-5.39a3.76,3.76,0,0,0-5.49,2.24,32.62,32.62,0,0,1-2.84,7.63c-.91,1.7-1.89,3.68-4.05,3.77-4.94.21-7.51-5.88-9.29-9.52-2.11-4.32-8.56-.53-6.46,3.78Z"/><path class="cls-13" d="M607.7,477.33c-.69-2.68-2.5-6.8-4.75-8.59a20,20,0,0,0-12.63-5.49h-.4l-.28,0c-.35,0-.68,0-1,.05h-.08a17.9,17.9,0,0,0-7.81,2.13,16.66,16.66,0,0,0-2,1.46c-.67.47-1.33,1-2,1.46a17.66,17.66,0,0,0-1.56,2,15.91,15.91,0,0,0-1.55,2c-.11.18-1.82,4.16-1.87,4.37l0,.12c0,.22-.67,4.4-.67,4.62a20.69,20.69,0,0,0,.52,4.77l0,.13,1.68,4.36,0,.06a19.52,19.52,0,0,0,3,4.06,21.81,21.81,0,0,0,3.93,3.1,18.39,18.39,0,0,0,9,2.54h.12l4.58-.51H594a14.61,14.61,0,0,0,4.53-1.78l3.89-2.86,0,0,0-.06,3-3.78a18.83,18.83,0,0,0,2.16-14Zm-26.66,5c-5.76,0-6.38-9-.58-9S586.85,482.36,581,482.36Z"/><path class="cls-13" d="M712.84,449.5c-.32-1.09-.64-2.18-1-3.27a13.25,13.25,0,0,0-3.11-6.29,13.6,13.6,0,0,0-5.21-4.94,2.2,2.2,0,0,1-.26-.15,13.65,13.65,0,0,0-4.9-2.26l-4.55-.66-4.58.5a13.44,13.44,0,0,0-6.29,3.11,13.7,13.7,0,0,0-4.94,5.22,8.41,8.41,0,0,0-1,2.29c-.36.75-.68,1.52-1,2.3a19.31,19.31,0,0,0-.16,9.63,17.87,17.87,0,0,0,.89,2.34,20.06,20.06,0,0,0,.91,2.33c.1.19.23.36.34.55s.08.23.13.35a17.62,17.62,0,0,0,4.26,5.71l3.78,3a13.61,13.61,0,0,0,6.57,2.17,9,9,0,0,0,4.56.08,13.47,13.47,0,0,0,6.64-1.94l3.89-2.86,3-3.78a20.2,20.2,0,0,0,2-13.42Zm-28.63,5.71c-5.77,0-6.39-9-.58-9S690,455.21,684.21,455.21Z"/><path class="cls-13" d="M568.41,648.2c.41,1.64.75,3.28,1,4.94l.18,1.16c-.09-.63.07.6.08.73.1.84.17,1.68.23,2.52a61.69,61.69,0,0,1-.15,10.08,3.75,3.75,0,0,0,3.74,3.74,3.84,3.84,0,0,0,3.74-3.74,63.86,63.86,0,0,0-1.62-21.42,3.78,3.78,0,0,0-4.6-2.61,3.83,3.83,0,0,0-2.62,4.6Z"/><path class="cls-13" d="M762.34,609.6a71.38,71.38,0,0,1,8,36c-.19,4.82,7.29,4.81,7.48,0a78.93,78.93,0,0,0-9.07-39.8c-2.24-4.27-8.7-.49-6.46,3.77Z"/><path class="cls-13" d="M423.46,284.12a5.16,5.16,0,0,0,.78.08c-.38,0-.66-.1-.09,0s.94.17,1.41.29.93.24,1.38.39a7.83,7.83,0,0,0,1.35.49l-.29-.13.36.16.59.29c.43.21.85.44,1.27.68s.82.5,1.22.77l.53.37c.26.19.82.39.08.05a4.75,4.75,0,0,1,1,.85c.39.35.77.72,1.13,1.09s.6.64.88,1a3.79,3.79,0,0,0,.5.61l-.27-.34.31.42A21.6,21.6,0,0,1,437,293.5a6.21,6.21,0,0,1,.62,1.3c-.19-.88-.08-.18,0,.07s.18.5.26.75a3.74,3.74,0,0,0,7.22-2,25.18,25.18,0,0,0-21.69-17,3.75,3.75,0,0,0-3.74,3.74,3.83,3.83,0,0,0,3.74,3.74Z"/><path class="cls-13" d="M301.71,211.68a123.65,123.65,0,0,0-21.29,2.16,3.76,3.76,0,0,0-2.61,4.61,3.84,3.84,0,0,0,4.6,2.61c1.67-.32,3.35-.6,5-.85,0,0,1.2-.16.56-.08l1.17-.15c.85-.1,1.69-.19,2.54-.27,3.32-.33,6.66-.51,10-.55a3.74,3.74,0,1,0,0-7.48Z"/><path class="cls-13" d="M419.51,620.22a218.08,218.08,0,0,1,11,39.64c.35,2,2.78,3.11,4.6,2.61a3.81,3.81,0,0,0,2.61-4.6,218.08,218.08,0,0,0-11-39.64,3.85,3.85,0,0,0-4.6-2.61c-1.8.5-3.34,2.71-2.61,4.6Z"/><path class="cls-13" d="M609.58,624.25a82.19,82.19,0,0,1,.92-16.88,79.76,79.76,0,0,1,1.74-8.09,11.19,11.19,0,0,1,1.06-2.86,2.85,2.85,0,0,1,1.38-1.39l.14-.07a4.94,4.94,0,0,1,.55-.15,4.88,4.88,0,0,1,.55-.12c-.37.06-.32.06.14,0,.2,0,1.23.06,1.06,0s.85.22,1,.28a6.45,6.45,0,0,1,2,1,3.91,3.91,0,0,1,.82.69s.77.83.47.45c2.85,3.52,3,8.65,3.25,12.95a3.74,3.74,0,1,0,7.48,0c-.28-4.84-.7-9.71-2.77-14.16a15.14,15.14,0,0,0-9.67-8.27c-4.1-1.11-8.85-.24-11.65,3.16-3.28,4-4.09,9.86-4.88,14.81a90.87,90.87,0,0,0-1.14,18.57,3.74,3.74,0,0,0,7.48,0Z"/><path class="cls-13" d="M724.48,599.68a74.71,74.71,0,0,0-9.43-12.13,68.34,68.34,0,0,0-5.35-5,37.82,37.82,0,0,0-6.58-4.82c-2.84-1.45-6.09-1.77-8.88,0a14.07,14.07,0,0,0-4.77,5.65,22.36,22.36,0,0,0-2,13.42,20.9,20.9,0,0,0,6.75,12.6,3.85,3.85,0,0,0,5.29,0,3.78,3.78,0,0,0,0-5.29,13.1,13.1,0,0,1-4.48-7.49c-.09-.36-.16-.72-.23-1.08l-.09-.55c.09.64,0,0,0-.1a22.05,22.05,0,0,1-.06-2.57c0-.37.05-.74.08-1.1-.06.67.08-.45.12-.64a16.44,16.44,0,0,1,.68-2.47c.06-.17.12-.34.19-.51-.07.16-.27.55.06-.11.16-.33.32-.66.5-1a10.21,10.21,0,0,1,1.22-1.79c.48-.51.74-.84,1.12-.79-.28,0,.61.2.76.26a12.26,12.26,0,0,1,1.22.75,55.39,55.39,0,0,1,9,7.75A63.56,63.56,0,0,1,718,603.46a3.74,3.74,0,1,0,6.46-3.78Z"/><path class="cls-14" d="M566.65,321.67a75.27,75.27,0,0,1-17.59-29.8c-1.59-5.12-2.58-10.84-.29-15.68,3.43-7.26,13.45-9.56,20.8-6.34s12.17,10.52,14.81,18.09c3.67-5.5,7.59-11.14,13.3-14.49s13.72-3.72,18.42.94c6.73,6.66,2.88,18.13-2.38,26A106.37,106.37,0,0,1,588,327.09"/><path class="cls-13" d="M569.29,319a73.52,73.52,0,0,1-13.17-19.19c-2.9-6.14-7.55-16.28-3.55-22.8,3-4.83,9.9-5.86,14.88-4,6.78,2.52,11,9.44,13.32,15.92a3.8,3.8,0,0,0,6.84.89c4.14-6.18,9.1-13.69,17-15,7.58-1.26,12.33,4.25,11.08,11.55-1.28,7.46-6.16,14-10.86,19.7a104.71,104.71,0,0,1-18.71,17.78c-3.84,2.82-.11,9.32,3.78,6.46a113.45,113.45,0,0,0,23.19-22.71c5.64-7.41,11.34-16.57,10.14-26.32s-9.88-15.16-19.21-13.89c-10.68,1.45-17.31,10.3-22.9,18.65l6.84.9c-3.14-8.7-8.55-17.09-17.43-20.71-7.4-3-16.93-1.63-22.47,4.38-7.12,7.71-4.15,19.05-.7,27.73a81.28,81.28,0,0,0,16.61,26c3.32,3.5,8.61-1.79,5.29-5.29Z"/></g></g></g></svg>